<?xml version="1.0" standalone="no"?>
<!DOCTYPE svg PUBLIC "-//W3C//DTD SVG 20010904//EN"
 "http://www.w3.org/TR/2001/REC-SVG-20010904/DTD/svg10.dtd">
<svg version="1.0" xmlns="http://www.w3.org/2000/svg"
 width="480.000000pt" height="480.000000pt" viewBox="0 0 480.000000 480.000000"
 preserveAspectRatio="xMidYMid meet">
<metadata>
Created by potrace 1.11, written by Peter Selinger 2001-2013
</metadata>
<g transform="translate(0.000000,480.000000) scale(0.100000,-0.100000)"
fill="#000000" stroke="none">
<path d="M400 3940 c0 -5 5 -10 10 -10 16 0 13 -677 -2 -683 -10 -4 -10 -6 0
-6 18 -1 18 -677 0 -685 -10 -5 -10 -7 0 -12 18 -8 18 -680 -1 -687 -9 -4 -9
-6 1 -6 18 -1 18 -677 0 -684 -10 -4 -10 -6 0 -6 9 -1 12 -76 12 -340 0 -262
-3 -341 -12 -345 -10 -5 -10 -7 0 -12 6 -3 12 -12 12 -20 0 -8 5 -14 10 -14 6
0 10 7 10 15 0 13 26 15 174 15 158 0 175 -2 179 -17 4 -17 5 -17 6 0 1 15 17
17 180 17 163 0 180 -2 184 -17 4 -17 5 -17 6 0 1 15 16 17 176 17 149 0 175
-2 175 -15 0 -8 5 -15 10 -15 6 0 10 7 10 15 0 13 26 15 175 15 149 0 175 -2
175 -15 0 -8 5 -15 10 -15 6 0 10 7 10 15 0 13 26 15 175 15 149 0 175 -2 175
-15 0 -8 5 -15 10 -15 6 0 10 7 10 15 0 13 26 15 174 15 158 0 175 -2 179 -18
3 -12 5 -13 6 -2 1 8 13 21 29 28 50 24 580 222 594 222 8 0 18 4 24 9 5 5 72
33 149 61 148 55 261 98 359 137 33 12 67 23 76 23 9 0 20 4 25 9 6 5 73 33
150 61 77 29 174 65 215 81 41 16 116 44 165 63 l90 35 -1122 0 -1123 1 -66
-25 c-78 -29 -74 -29 -74 -11 0 23 -20 30 -38 13 -11 -12 -12 -20 -5 -29 9
-10 -96 -53 -505 -208 -285 -107 -656 -247 -827 -311 l-310 -118 -3 336 c-2
263 1 338 10 345 10 6 10 8 1 8 -10 0 -13 75 -13 339 0 262 3 340 13 344 10 4
10 6 0 6 -18 1 -19 671 -1 689 9 9 9 12 0 12 -18 0 -17 676 1 683 10 4 10 6 0
6 -17 1 -19 681 -3 681 6 0 10 5 10 10 0 6 -13 10 -30 10 -16 0 -30 -4 -30
-10z m2115 -2816 c-78 -30 -93 -33 -113 -22 -19 10 -25 10 -32 -2 -6 -8 -10
-20 -10 -27 0 -19 -53 -24 -213 -21 l-149 3 134 52 133 51 170 0 170 1 -90
-35z m813 31 c-2 -2 -64 -27 -137 -55 l-133 -50 -138 0 c-77 0 -141 4 -144 9
-4 5 27 22 66 37 103 38 135 52 121 53 -6 1 -53 -15 -103 -34 -50 -19 -99 -35
-108 -35 -10 0 -26 -7 -36 -15 -15 -11 -50 -15 -147 -14 -173 1 -180 12 -41
66 l107 41 349 1 c192 0 347 -2 344 -4z m371 1 c-2 -2 -65 -27 -140 -55 l-137
-52 -158 3 -159 3 135 52 135 52 164 0 c90 1 162 -1 160 -3z m370 -1 c-3 -2
-67 -27 -143 -55 l-137 -50 -160 2 -160 3 138 52 138 52 164 0 c90 1 162 -1
160 -4z m306 -21 c-33 -14 -99 -38 -147 -55 -84 -28 -93 -29 -238 -27 l-151 3
138 52 138 52 160 0 160 0 -60 -25z m-2096 -98 c-2 -2 -60 -24 -129 -50 l-125
-47 -160 3 -160 3 125 47 125 47 164 0 c90 1 162 -1 160 -3z m87 -21 c15 -14
31 -25 36 -25 5 0 13 11 18 25 12 32 55 35 63 5 3 -11 12 -20 21 -20 9 0 25 9
36 20 15 15 33 20 68 19 l47 0 -48 -20 c-27 -11 -56 -21 -65 -23 -10 -1 -37
-13 -62 -24 l-45 -22 38 6 c21 4 37 2 37 -4 0 -6 -64 -10 -162 -11 l-163 -1
-1 24 c-1 15 5 26 15 29 9 3 25 8 35 13 14 5 17 4 12 -5 -10 -16 12 -41 30
-34 19 7 18 32 -2 40 -13 5 -10 9 12 19 42 18 50 17 80 -11z m1383 21 c-2 -3
-60 -25 -128 -51 l-123 -45 -160 2 -160 3 106 39 c59 21 104 41 101 44 -2 3
-60 -16 -129 -42 l-124 -47 -162 3 -162 3 107 39 c60 22 104 41 98 43 -5 2
-63 -17 -129 -42 -111 -42 -184 -56 -184 -36 0 5 10 15 22 23 29 19 15 42 -21
33 -14 -3 -31 -13 -37 -21 -10 -12 -13 -12 -24 1 -10 12 -16 13 -27 4 -7 -7
-16 -9 -20 -5 -3 3 -15 -1 -25 -11 -15 -13 -18 -13 -18 -2 0 9 27 25 68 40
l67 26 534 1 c294 1 532 0 530 -2z m360 0 c-2 -3 -60 -25 -128 -51 l-123 -45
-157 2 -156 3 125 47 125 47 159 0 c88 1 157 -1 155 -3z m-1965 -81 c4 -12 -3
-15 -32 -14 l-37 1 30 13 c17 8 31 14 31 15 1 0 4 -7 8 -15z m-175 -35 c-8 -5
-71 -30 -138 -55 l-123 -45 -161 2 -160 3 139 52 139 52 160 0 c103 0 154 -3
144 -9z m291 0 c-8 -5 -25 -10 -37 -10 -21 0 -48 -31 -37 -42 2 -3 -21 -15
-53 -27 -52 -19 -74 -21 -218 -19 l-160 3 140 52 c140 52 140 52 260 52 81 1
115 -2 105 -9z m80 0 c-19 -13 -30 -13 -30 0 0 6 10 10 23 10 18 0 19 -2 7
-10z m183 -3 c3 -9 -4 -13 -21 -12 -14 0 -27 6 -30 13 -5 16 44 16 51 -1z
m197 9 c0 -2 -7 -6 -15 -10 -8 -3 -15 -1 -15 4 0 6 7 10 15 10 8 0 15 -2 15
-4z m369 0 c-2 -2 -65 -27 -140 -55 l-135 -51 -125 0 c-89 1 -119 3 -106 11 9
5 17 17 17 24 0 9 10 15 23 15 13 0 28 5 33 10 6 6 35 19 65 30 45 16 81 19
213 20 88 0 157 -2 155 -4z m341 -10 c-14 -7 -75 -32 -136 -55 l-111 -42 -162
3 -162 3 138 52 138 52 160 0 c139 0 157 -2 135 -13z m389 10 c-2 -2 -65 -27
-140 -55 l-135 -52 -158 3 -157 3 138 52 138 52 159 0 c88 1 157 -1 155 -3z
m-1434 -16 c-3 -5 -10 -10 -16 -10 -5 0 -9 5 -9 10 0 6 7 10 16 10 8 0 12 -4
9 -10z m-55 -20 c0 -5 -9 -14 -21 -20 -19 -11 -20 -10 -9 9 11 22 30 29 30 11z
m-99 -55 c34 -14 33 -14 -41 -14 -74 1 -74 1 -40 14 45 17 42 17 81 0z m-586
-39 c-16 -7 -65 -25 -108 -41 -42 -15 -75 -30 -73 -33 3 -3 61 16 130 42 l124
47 162 -3 162 -3 -106 -39 c-59 -21 -104 -41 -101 -44 2 -3 61 17 131 43 l126
47 111 -4 c163 -5 171 -16 50 -61 l-98 -36 -529 0 c-291 0 -527 1 -525 4 3 2
58 24 124 49 l120 45 165 0 c143 0 161 -1 135 -13z m1124 9 c-3 -2 -59 -25
-124 -50 l-120 -45 -165 1 -165 0 85 34 c47 19 101 34 120 35 19 1 55 7 80 14
41 12 299 22 289 11z m370 1 c-2 -3 -60 -25 -128 -51 l-123 -45 -160 2 -159 3
123 47 123 47 164 0 c90 1 162 -1 160 -3z m360 0 c-2 -3 -60 -25 -128 -51
l-123 -45 -157 2 -156 3 125 47 125 47 159 0 c88 1 157 -1 155 -3z m-2150
-120 c-2 -3 -60 -25 -128 -51 l-123 -45 -162 2 -161 3 125 47 125 47 164 0
c90 1 162 -1 160 -3z m370 0 c-2 -2 -60 -24 -129 -50 l-125 -47 -160 3 -160 3
125 47 125 47 164 0 c90 1 162 -1 160 -3z m356 -6 c-11 -4 -69 -26 -129 -49
l-109 -41 -166 0 -166 1 125 48 125 49 170 0 c99 1 162 -3 150 -8z m745 6 c0
-2 -56 -24 -124 -50 l-124 -47 -162 3 -162 3 107 39 c60 22 104 41 98 43 -5 2
-63 -17 -129 -42 l-119 -45 -165 1 -165 0 125 48 125 49 348 1 c191 0 347 -1
347 -3z m359 0 c-2 -2 -58 -25 -125 -50 l-121 -47 -157 3 -157 3 123 47 123
47 159 0 c88 1 157 -1 155 -3z m-2144 -120 c-16 -7 -65 -25 -108 -41 -42 -15
-75 -30 -73 -33 3 -3 61 16 130 42 l124 47 162 -3 162 -3 -107 -39 c-60 -22
-104 -41 -98 -43 5 -2 63 17 128 41 l119 45 344 0 c190 0 343 -2 340 -4 -2 -3
-51 -22 -109 -44 -57 -22 -112 -42 -121 -46 -13 -5 -18 -2 -18 9 0 9 -4 16
-10 16 -5 0 -10 -7 -10 -15 0 -13 -23 -15 -152 -15 -170 1 -169 -1 -14 55 44
16 75 30 70 32 -8 3 -117 -35 -236 -82 -13 -5 -18 -2 -18 9 0 9 -4 16 -10 16
-5 0 -10 -7 -10 -16 0 -13 -22 -15 -175 -13 -152 2 -175 4 -176 18 -1 12 -2
12 -6 -2 -4 -17 -18 -18 -184 -16 -156 2 -179 4 -180 18 -1 13 -2 13 -6 -1 -4
-16 -20 -18 -155 -18 -83 0 -149 2 -147 4 2 3 58 25 124 50 l120 45 165 0
c143 0 161 -1 135 -13z m1494 10 c-2 -3 -58 -25 -124 -49 -92 -35 -121 -42
-123 -31 -5 19 -22 18 -22 -1 0 -13 -23 -15 -152 -14 -84 0 -148 2 -143 5 6 2
62 24 125 48 l115 45 164 0 c90 1 162 -1 160 -3z m360 0 c-2 -3 -58 -25 -124
-49 -106 -40 -121 -43 -127 -28 -6 14 -7 14 -7 -1 -1 -16 -15 -18 -153 -18
-83 0 -149 2 -147 4 2 3 58 25 124 50 l120 45 159 0 c88 1 157 -1 155 -3z"/>
<path d="M2203 1104 c-8 -21 13 -42 28 -27 13 13 5 43 -11 43 -6 0 -13 -7 -17
-16z"/>
<path d="M2624 1109 c-10 -17 23 -46 37 -32 7 7 9 19 6 27 -7 18 -33 21 -43 5z"/>
<path d="M2725 3850 c-4 -7 -3 -16 3 -22 14 -14 45 -2 40 15 -6 16 -34 21 -43
7z"/>
<path d="M1834 3705 c-7 -18 3 -35 21 -35 18 0 26 25 12 39 -15 15 -27 14 -33
-4z"/>
<path d="M3020 3635 c-10 -11 -10 -19 -2 -27 15 -15 44 -2 40 19 -4 23 -22 27
-38 8z"/>
<path d="M1151 3571 c-17 -11 -7 -41 13 -41 22 0 30 20 15 36 -9 8 -19 10 -28
5z"/>
<path d="M2814 3539 c-3 -6 0 -17 8 -25 13 -13 16 -13 27 0 7 8 10 20 6 26 -8
13 -32 13 -41 -1z"/>
<path d="M3586 3474 c-4 -10 -2 -22 3 -27 14 -14 43 0 39 20 -4 24 -34 28 -42
7z"/>
<path d="M3393 3424 c-3 -8 -1 -20 6 -27 14 -14 47 15 37 32 -10 16 -36 13
-43 -5z"/>
<path d="M1869 3414 c-9 -11 -9 -18 -1 -26 14 -14 42 -3 42 16 0 20 -27 27
-41 10z"/>
<path d="M3091 3366 c-9 -10 -8 -16 4 -26 19 -16 41 1 32 24 -8 20 -21 20 -36
2z"/>
<path d="M3672 3337 c-5 -7 -8 -28 -8 -47 1 -28 5 -35 21 -35 32 0 41 77 10
89 -8 3 -18 -1 -23 -7z"/>
<path d="M3434 3265 c-7 -18 3 -35 22 -35 20 0 30 30 13 41 -20 12 -29 11 -35
-6z"/>
<path d="M2912 3238 c2 -13 10 -23 18 -23 8 0 16 10 18 23 3 17 -2 22 -18 22
-16 0 -21 -5 -18 -22z"/>
<path d="M3504 3245 c-7 -18 3 -35 21 -35 15 0 28 27 19 41 -8 14 -34 11 -40
-6z"/>
<path d="M3194 3235 c-7 -18 3 -35 21 -35 21 0 28 19 15 35 -16 19 -29 19 -36
0z"/>
<path d="M2910 3175 c-13 -15 -6 -35 12 -35 6 0 19 -7 28 -15 15 -14 19 -14
29 -1 14 17 7 36 -14 36 -7 0 -15 7 -19 15 -7 19 -20 19 -36 0z"/>
<path d="M3461 3176 c-9 -10 -8 -16 4 -26 19 -16 41 1 32 24 -8 20 -21 20 -36
2z"/>
<path d="M3623 3170 c-3 -11 -12 -20 -19 -20 -8 0 -14 -9 -14 -20 0 -11 4 -20
9 -20 5 0 11 -9 14 -20 3 -11 12 -20 21 -20 24 0 32 31 13 45 -21 15 -22 25
-2 25 21 0 31 30 14 41 -22 13 -30 11 -36 -11z"/>
<path d="M2853 3144 c-8 -22 18 -37 36 -20 7 8 10 19 7 25 -10 16 -36 13 -43
-5z"/>
<path d="M2543 3134 c-3 -8 -1 -20 6 -27 14 -14 47 15 37 32 -10 16 -36 13
-43 -5z"/>
<path d="M3510 3125 c-10 -11 -10 -19 -2 -27 15 -15 44 -2 40 19 -4 23 -22 27
-38 8z"/>
<path d="M1679 3114 c-9 -11 -9 -18 -1 -26 14 -14 42 -3 42 16 0 20 -27 27
-41 10z"/>
<path d="M1184 3035 c-4 -9 -2 -21 4 -27 15 -15 44 -1 40 19 -4 23 -36 29 -44
8z"/>
<path d="M2360 3015 c-10 -11 -10 -19 -2 -27 15 -15 44 -2 40 19 -4 23 -22 27
-38 8z"/>
<path d="M3570 3005 c-10 -11 -10 -19 -2 -27 15 -15 44 -2 40 19 -4 23 -22 27
-38 8z"/>
<path d="M2473 2998 c-4 -7 -14 -13 -22 -13 -18 0 -36 -64 -22 -78 16 -16 44
1 38 23 -5 21 7 34 33 35 21 0 19 39 -2 43 -9 2 -20 -3 -25 -10z"/>
<path d="M1659 2984 c-9 -11 -9 -18 -1 -26 14 -14 42 -3 42 16 0 20 -27 27
-41 10z"/>
<path d="M2801 2991 c-17 -11 -7 -41 13 -41 22 0 30 20 15 36 -9 8 -19 10 -28
5z"/>
<path d="M1201 2967 c-14 -14 -14 -44 1 -53 12 -7 38 21 38 42 0 17 -26 24
-39 11z"/>
<path d="M1721 2966 c-14 -17 -7 -36 14 -36 22 0 29 20 13 36 -13 13 -16 13
-27 0z"/>
<path d="M2993 2964 c-3 -8 -1 -20 6 -27 14 -14 47 15 37 32 -10 16 -36 13
-43 -5z"/>
<path d="M3400 2960 c0 -11 5 -20 11 -20 6 0 18 -7 26 -16 14 -14 18 -14 31
-1 16 17 9 37 -14 37 -8 0 -14 5 -14 10 0 6 -9 10 -20 10 -13 0 -20 -7 -20
-20z"/>
<path d="M2663 2934 c-9 -23 13 -40 32 -24 12 10 13 16 4 26 -15 18 -28 18
-36 -2z"/>
<path d="M1514 2915 c-7 -18 3 -35 21 -35 18 0 26 25 12 39 -15 15 -27 14 -33
-4z"/>
<path d="M3244 2915 c-7 -18 3 -35 21 -35 18 0 26 25 12 39 -15 15 -27 14 -33
-4z"/>
<path d="M3401 2916 c-14 -17 -7 -36 14 -36 22 0 29 20 13 36 -13 13 -16 13
-27 0z"/>
<path d="M1220 2895 c-7 -8 -8 -20 -4 -27 5 -7 7 -20 6 -30 -4 -24 17 -33 35
-15 10 9 12 20 7 29 -5 7 -7 20 -6 29 4 22 -23 32 -38 14z"/>
<path d="M3323 2893 c-3 -10 -12 -25 -19 -33 -17 -20 -2 -45 21 -36 11 4 15
13 12 25 -3 12 1 18 12 17 22 -1 21 38 -2 42 -10 2 -20 -4 -24 -15z"/>
<path d="M1761 2876 c-14 -17 -7 -36 14 -36 22 0 29 20 13 36 -13 13 -16 13
-27 0z"/>
<path d="M3127 2876 c-8 -20 20 -43 35 -28 14 14 3 42 -16 42 -7 0 -16 -6 -19
-14z"/>
<path d="M1510 2855 c-10 -11 -10 -19 -2 -27 15 -15 44 -2 40 19 -4 23 -22 27
-38 8z"/>
<path d="M2914 2855 c-4 -10 -1 -21 7 -26 20 -12 34 -5 34 17 0 24 -33 31 -41
9z"/>
<path d="M3199 2854 c-9 -11 -9 -18 -1 -26 14 -14 42 -3 42 16 0 20 -27 27
-41 10z"/>
<path d="M2023 2844 c-9 -23 13 -40 32 -24 12 10 13 16 4 26 -15 18 -28 18
-36 -2z"/>
<path d="M1373 2834 c-9 -23 13 -40 32 -24 12 10 13 16 4 26 -15 18 -28 18
-36 -2z"/>
<path d="M3094 2835 c-7 -18 3 -35 21 -35 15 0 28 27 19 41 -8 14 -34 11 -40
-6z"/>
<path d="M3530 2830 c0 -11 -3 -19 -7 -19 -40 6 -45 -27 -7 -41 29 -11 59 4
50 25 -2 7 0 17 6 23 14 14 1 32 -23 32 -12 0 -19 -7 -19 -20z"/>
<path d="M2653 2824 c-9 -23 13 -40 32 -24 12 10 13 16 4 26 -15 18 -28 18
-36 -2z"/>
<path d="M3242 2827 c-14 -16 -3 -67 15 -74 19 -8 37 12 27 29 -5 7 -7 20 -6
29 4 21 -23 32 -36 16z"/>
<path d="M2123 2804 c-8 -22 18 -37 36 -20 7 8 10 19 7 25 -10 16 -36 13 -43
-5z"/>
<path d="M2734 2809 c-3 -6 0 -17 8 -25 13 -13 16 -13 27 0 7 8 10 20 6 26 -8
13 -32 13 -41 -1z"/>
<path d="M2820 2800 c0 -13 7 -20 20 -20 13 0 20 -7 20 -20 0 -23 26 -38 40
-24 13 13 1 54 -15 54 -7 0 -15 7 -19 15 -8 23 -46 19 -46 -5z"/>
<path d="M1734 2785 c-4 -10 -1 -21 7 -26 20 -12 34 -5 34 17 0 24 -33 31 -41
9z"/>
<path d="M3443 2784 c-3 -8 -1 -20 5 -26 15 -15 43 8 35 28 -7 19 -32 18 -40
-2z"/>
<path d="M3004 2769 c-3 -6 0 -17 7 -25 18 -17 44 -2 36 20 -7 18 -33 21 -43
5z"/>
<path d="M1585 2760 c-3 -6 -5 -20 -4 -33 2 -12 0 -28 -5 -35 -10 -17 12 -62
31 -62 19 0 26 25 14 49 -7 12 -7 22 -2 26 16 9 7 60 -11 63 -9 2 -19 -2 -23
-8z"/>
<path d="M2701 2761 c-17 -11 -7 -41 13 -41 22 0 30 20 15 36 -9 8 -19 10 -28
5z"/>
<path d="M3174 2755 c-7 -18 3 -35 21 -35 18 0 26 25 12 39 -15 15 -27 14 -33
-4z"/>
<path d="M1454 2736 c-3 -8 -3 -19 0 -24 10 -17 -14 -70 -32 -68 -21 1 -28
-32 -8 -40 31 -12 99 59 77 81 -3 4 -6 18 -6 32 0 29 -22 43 -31 19z"/>
<path d="M3076 2725 c-20 -31 -20 -41 0 -49 20 -8 34 1 34 20 0 8 5 14 10 14
6 0 10 9 10 20 0 29 -34 26 -54 -5z"/>
<path d="M1270 2721 c0 -26 17 -36 35 -21 18 15 8 40 -16 40 -12 0 -19 -7 -19
-19z"/>
<path d="M1733 2724 c-3 -9 0 -20 7 -24 11 -7 11 -11 0 -25 -16 -19 0 -41 24
-32 18 7 21 33 6 42 -8 5 -7 11 0 20 7 8 9 19 5 25 -10 15 -35 12 -42 -6z"/>
<path d="M2095 2731 c-9 -16 3 -31 26 -31 14 0 19 6 17 17 -4 20 -33 29 -43
14z"/>
<path d="M2470 2725 c-10 -11 -10 -19 -2 -27 15 -15 44 -2 40 19 -4 23 -22 27
-38 8z"/>
<path d="M1934 2709 c-10 -17 23 -46 37 -32 7 7 9 19 6 27 -7 18 -33 21 -43 5z"/>
<path d="M3493 2706 c-13 -6 -23 -14 -23 -18 0 -4 -12 -3 -27 3 -22 8 -30 7
-40 -6 -6 -10 -16 -14 -21 -11 -13 8 -35 -20 -27 -34 4 -7 15 -10 24 -7 12 3
16 -3 16 -27 0 -25 5 -32 24 -34 21 -3 23 -1 19 33 -4 32 -2 36 16 33 14 -2
20 -9 18 -21 -4 -21 25 -34 41 -18 8 8 8 14 -1 23 -14 14 -16 32 -3 24 14 -9
33 21 29 45 -4 27 -15 30 -45 15z"/>
<path d="M2380 2695 c-10 -12 -10 -18 0 -30 7 -9 15 -13 18 -11 3 3 17 -3 32
-14 20 -14 30 -16 38 -8 18 18 15 23 -28 52 -47 31 -44 30 -60 11z"/>
<path d="M1814 2679 c-10 -17 23 -46 37 -32 7 7 9 19 6 27 -7 18 -33 21 -43 5z"/>
<path d="M3142 2658 c-23 -23 -11 -45 22 -39 5 1 17 -6 27 -15 10 -9 23 -13
28 -9 17 10 13 35 -6 42 -10 4 -22 12 -26 20 -10 16 -29 17 -45 1z"/>
<path d="M2995 2650 c-4 -7 -3 -16 3 -22 14 -14 45 -2 40 15 -6 16 -34 21 -43
7z"/>
<path d="M3301 2651 c-8 -5 -11 -16 -8 -25 3 -8 2 -18 -3 -21 -15 -10 -12 -35
6 -42 22 -8 42 13 26 29 -9 9 -7 14 6 24 15 11 15 14 2 28 -10 10 -20 12 -29
7z"/>
<path d="M2613 2634 c-4 -10 4 -25 22 -40 25 -22 31 -23 43 -10 13 13 12 18
-9 40 -28 29 -47 33 -56 10z"/>
<path d="M1774 2619 c-10 -17 23 -46 37 -32 7 7 9 19 6 27 -7 18 -33 21 -43 5z"/>
<path d="M1873 2604 c-3 -8 -1 -20 6 -27 14 -14 47 15 37 32 -10 16 -36 13
-43 -5z"/>
<path d="M2064 2605 c-7 -18 3 -35 21 -35 18 0 26 25 12 39 -15 15 -27 14 -33
-4z"/>
<path d="M2171 2590 c-12 -17 -19 -35 -16 -40 9 -15 35 -12 41 4 3 8 11 13 18
10 17 -6 42 24 30 35 -25 24 -50 21 -73 -9z"/>
<path d="M1324 2556 c-6 -16 23 -66 38 -66 5 0 7 -4 4 -8 -9 -15 12 -35 29
-28 23 9 12 52 -23 89 -29 30 -40 33 -48 13z"/>
<path d="M1454 2548 c-4 -6 0 -16 8 -22 8 -6 17 -19 21 -28 7 -21 33 -24 40
-5 5 15 -33 67 -49 67 -7 0 -16 -5 -20 -12z"/>
<path d="M2464 2545 c-9 -22 22 -53 37 -38 15 15 7 47 -14 51 -9 2 -20 -4 -23
-13z"/>
<path d="M2993 2543 c-4 -10 -1 -19 6 -21 7 -2 21 -13 31 -25 16 -16 22 -18
34 -8 17 14 11 41 -9 41 -7 0 -15 7 -19 15 -7 20 -35 19 -43 -2z"/>
<path d="M3317 2546 c-8 -20 20 -43 35 -28 14 14 3 42 -16 42 -7 0 -16 -6 -19
-14z"/>
<path d="M2660 2534 c-7 -8 -9 -14 -5 -14 4 0 1 -7 -6 -16 -11 -14 -10 -19 10
-35 28 -23 35 -23 51 -4 10 12 10 19 2 27 -7 7 -12 20 -12 29 0 23 -26 31 -40
13z"/>
<path d="M2147 2516 c-3 -7 -1 -18 5 -24 6 -6 11 -25 10 -42 -1 -37 22 -50 46
-27 14 15 14 20 -7 62 -22 45 -44 57 -54 31z"/>
<path d="M2724 2515 c-9 -21 23 -65 46 -65 30 0 33 17 9 50 -25 33 -46 39 -55
15z"/>
<path d="M3213 2514 c-8 -21 13 -42 28 -27 13 13 5 43 -11 43 -6 0 -13 -7 -17
-16z"/>
<path d="M3430 2515 c-7 -9 -10 -18 -7 -21 3 -3 -1 -27 -9 -52 -17 -58 -17
-59 1 -66 19 -7 55 48 55 85 0 14 5 30 11 36 6 6 8 16 5 22 -10 16 -42 13 -56
-4z"/>
<path d="M2379 2503 c-11 -12 -10 -17 4 -27 12 -9 13 -16 6 -23 -14 -14 -3
-33 17 -33 18 0 29 25 18 42 -5 7 -7 20 -6 29 4 23 -24 31 -39 12z"/>
<path d="M2883 2504 c-8 -21 13 -42 28 -27 13 13 5 43 -11 43 -6 0 -13 -7 -17
-16z"/>
<path d="M2081 2501 c-17 -11 -7 -41 13 -41 22 0 30 20 15 36 -9 8 -19 10 -28
5z"/>
<path d="M2513 2494 c-4 -10 0 -22 8 -28 9 -6 18 -19 22 -28 8 -22 21 -23 36
-4 9 10 9 16 1 21 -6 4 -15 18 -20 31 -11 28 -38 32 -47 8z"/>
<path d="M1620 2485 c-10 -11 -10 -19 -2 -27 15 -15 44 -2 40 19 -4 23 -22 27
-38 8z"/>
<path d="M3155 2470 c-14 -22 58 -91 77 -72 16 16 54 -9 64 -43 9 -29 11 -30
72 -33 61 -3 63 -2 60 20 -2 19 -10 23 -41 25 -47 1 -55 8 -39 34 10 16 10 24
1 35 -17 20 -28 17 -39 -11 -5 -14 -12 -25 -15 -25 -4 0 -4 4 -1 9 10 16 -22
35 -37 22 -10 -8 -20 -4 -42 19 -30 31 -49 37 -60 20z"/>
<path d="M1551 2451 c-25 -25 -27 -44 -6 -61 18 -15 33 -6 46 28 7 19 6 29 -5
40 -12 12 -17 11 -35 -7z"/>
<path d="M2257 2456 c-8 -20 20 -43 35 -28 14 14 3 42 -16 42 -7 0 -16 -6 -19
-14z"/>
<path d="M2824 2435 c-7 -18 3 -35 21 -35 18 0 26 25 12 39 -15 15 -27 14 -33
-4z"/>
<path d="M1346 2432 c-5 -9 18 -86 34 -115 6 -10 8 -22 5 -26 -8 -15 24 -36
37 -23 11 11 -5 95 -29 145 -13 26 -36 36 -47 19z"/>
<path d="M1417 2426 c-8 -20 20 -43 35 -28 14 14 3 42 -16 42 -7 0 -16 -6 -19
-14z"/>
<path d="M2890 2425 c-15 -18 -3 -38 20 -32 11 3 21 -1 24 -9 6 -17 53 -15 67
3 18 20 0 34 -37 29 -19 -3 -34 -2 -34 3 0 16 -28 20 -40 6z"/>
<path d="M1987 2403 c-4 -3 -7 -19 -7 -35 0 -32 27 -50 41 -27 19 31 -11 86
-34 62z"/>
<path d="M2084 2395 c-4 -9 -2 -21 4 -27 15 -15 44 -1 40 19 -4 23 -36 29 -44
8z"/>
<path d="M2470 2390 c0 -16 5 -21 23 -18 12 2 22 10 22 18 0 8 -10 16 -22 18
-18 3 -23 -2 -23 -18z"/>
<path d="M2750 2380 c0 -13 7 -20 20 -20 13 0 20 7 20 20 0 13 -7 20 -20 20
-13 0 -20 -7 -20 -20z"/>
<path d="M2129 2364 c-9 -11 -9 -18 -1 -26 14 -14 42 -3 42 16 0 20 -27 27
-41 10z"/>
<path d="M1504 2353 c-4 -10 -8 -24 -9 -31 0 -7 -11 -18 -25 -25 -35 -18 -33
-43 4 -40 26 2 27 1 11 -11 -12 -9 -16 -19 -11 -31 4 -12 -1 -26 -15 -41 -37
-39 -4 -59 41 -25 20 16 22 21 11 35 -11 13 -10 19 9 34 21 17 21 19 6 35 -15
15 -15 17 3 27 26 14 28 13 34 -11 7 -26 43 -22 41 5 -2 16 -1 16 15 2 16 -15
19 -14 36 4 9 10 15 26 12 35 -7 17 -42 21 -52 5 -4 -6 -13 -5 -25 2 -14 9
-22 9 -34 -1 -13 -11 -15 -9 -13 15 2 33 -26 45 -39 17z"/>
<path d="M2247 2356 c-7 -17 47 -71 62 -62 16 10 13 36 -4 42 -8 4 -15 12 -15
20 0 18 -36 18 -43 0z"/>
<path d="M2513 2354 c-3 -8 -1 -20 6 -27 14 -14 47 15 37 32 -10 16 -36 13
-43 -5z"/>
<path d="M3094 2359 c-3 -6 0 -17 8 -25 13 -13 16 -13 27 0 7 8 10 20 6 26 -8
13 -32 13 -41 -1z"/>
<path d="M1844 2335 c-4 -9 -2 -21 4 -27 15 -15 44 -1 40 19 -4 23 -36 29 -44
8z"/>
<path d="M2803 2334 c-3 -8 -1 -20 5 -26 15 -15 43 8 35 28 -7 19 -32 18 -40
-2z"/>
<path d="M3041 2336 c-9 -10 -8 -16 4 -26 19 -16 41 1 32 24 -8 20 -21 20 -36
2z"/>
<path d="M3163 2334 c-3 -8 -1 -20 5 -26 15 -15 43 8 35 28 -7 19 -32 18 -40
-2z"/>
<path d="M1932 2317 c-15 -17 1 -42 23 -33 18 6 17 37 -1 43 -6 2 -16 -2 -22
-10z"/>
<path d="M2934 2315 c-3 -8 -3 -19 1 -25 4 -6 1 -17 -5 -25 -13 -16 -5 -35 15
-35 20 0 29 19 16 34 -8 10 -7 17 4 26 12 10 13 16 4 26 -15 18 -28 18 -35 -1z"/>
<path d="M1791 2306 c-14 -17 -7 -36 14 -36 22 0 29 20 13 36 -13 13 -16 13
-27 0z"/>
<path d="M2230 2285 c0 -28 25 -44 42 -27 15 15 -1 52 -23 52 -14 0 -19 -7
-19 -25z"/>
<path d="M2004 2285 c-4 -8 -12 -15 -19 -15 -20 0 -29 -20 -16 -33 8 -8 18 -7
38 4 36 18 44 30 31 46 -14 17 -27 16 -34 -2z"/>
<path d="M3302 2288 c-7 -7 -30 -18 -50 -23 -27 -8 -37 -16 -37 -30 0 -17 6
-20 35 -17 19 1 40 8 45 15 6 7 18 16 28 20 19 7 20 38 2 44 -6 2 -16 -2 -23
-9z"/>
<path d="M2532 2277 c-15 -17 1 -42 23 -33 18 6 17 37 -1 43 -6 2 -16 -2 -22
-10z"/>
<path d="M3158 2272 c-22 -14 -31 -15 -47 -5 -16 10 -22 9 -32 -3 -11 -13 -10
-19 8 -32 11 -10 23 -25 26 -34 7 -20 32 -24 42 -8 4 6 1 18 -6 26 -9 12 -9
13 2 9 21 -7 63 29 56 49 -8 19 -14 19 -49 -2z"/>
<path d="M2377 2256 c-8 -20 20 -43 35 -28 14 14 3 42 -16 42 -7 0 -16 -6 -19
-14z"/>
<path d="M2730 2255 c-6 -8 -9 -19 -5 -25 4 -6 1 -18 -6 -26 -9 -11 -9 -18 -1
-26 15 -15 44 -2 40 19 -1 10 1 24 6 31 9 15 1 42 -12 42 -5 0 -15 -7 -22 -15z"/>
<path d="M3345 2240 c-11 -21 -23 -30 -39 -30 -34 0 -38 -21 -8 -52 20 -22 29
-25 43 -17 11 5 19 16 19 24 0 8 5 15 10 15 6 0 10 8 10 18 0 10 5 23 11 29
15 15 4 43 -15 43 -9 0 -22 -13 -31 -30z"/>
<path d="M1413 2234 c-9 -23 13 -40 32 -24 12 10 13 16 4 26 -15 18 -28 18
-36 -2z"/>
<path d="M1670 2230 c0 -13 7 -20 20 -20 13 0 20 7 20 20 0 13 -7 20 -20 20
-13 0 -20 -7 -20 -20z"/>
<path d="M2067 2226 c-8 -20 20 -43 35 -28 14 14 3 42 -16 42 -7 0 -16 -6 -19
-14z"/>
<path d="M2572 2228 c-14 -14 -4 -38 15 -38 8 0 12 -4 9 -9 -8 -13 21 -34 39
-27 22 8 18 37 -5 43 -11 3 -20 11 -20 18 0 17 -25 26 -38 13z"/>
<path d="M1743 2204 c-9 -23 13 -40 32 -24 12 10 13 16 4 26 -15 18 -28 18
-36 -2z"/>
<path d="M2153 2204 c-3 -8 -1 -20 5 -26 15 -15 43 8 35 28 -7 19 -32 18 -40
-2z"/>
<path d="M3034 2195 c-7 -18 3 -35 21 -35 21 0 28 19 15 35 -16 19 -29 19 -36
0z"/>
<path d="M3205 2190 c-4 -6 -11 -8 -16 -4 -18 11 -36 -16 -34 -53 1 -48 27
-56 48 -16 9 15 18 26 22 23 5 -3 13 2 18 12 8 12 7 21 -2 32 -15 18 -27 20
-36 6z"/>
<path d="M2404 2176 c-3 -7 -4 -17 -3 -22 1 -5 -1 -17 -6 -27 -11 -26 9 -44
30 -27 8 7 18 10 21 7 3 -3 -4 -11 -16 -17 -30 -16 -45 -59 -26 -78 17 -17 36
-8 36 17 0 10 9 21 21 24 13 3 19 12 17 24 -2 14 3 17 25 15 18 -2 29 3 33 13
9 23 -11 41 -29 27 -11 -9 -13 -7 -13 11 1 29 -25 29 -40 0 -6 -13 -14 -20
-17 -16 -4 3 -2 12 4 20 9 10 8 17 -1 28 -15 19 -29 19 -36 1z"/>
<path d="M2006 2162 c-32 -19 -35 -32 -12 -47 21 -13 71 17 71 42 0 24 -23 26
-59 5z"/>
<path d="M1786 2154 c-3 -8 2 -26 10 -40 19 -28 12 -43 -10 -25 -18 15 -56 -2
-56 -24 0 -21 15 -26 44 -16 21 8 26 7 31 -9 8 -24 31 -32 45 -15 9 10 8 19
-4 37 -9 14 -12 29 -7 37 10 16 -15 71 -34 71 -7 0 -16 -7 -19 -16z"/>
<path d="M2083 2154 c-6 -17 30 -53 54 -54 26 0 24 23 -3 46 -35 28 -43 29
-51 8z"/>
<path d="M2912 2148 c2 -13 10 -23 18 -23 8 0 16 10 18 23 3 17 -2 22 -18 22
-16 0 -21 -5 -18 -22z"/>
<path d="M3082 2153 c-4 -10 -14 -18 -22 -18 -21 0 -24 -84 -3 -92 18 -7 35
17 24 32 -11 14 10 50 29 50 21 0 19 39 -3 43 -9 2 -20 -4 -25 -15z"/>
<path d="M1713 2141 c-4 -16 -11 -19 -34 -14 -24 5 -29 2 -29 -15 0 -22 26
-37 36 -21 4 6 11 6 21 -3 12 -10 18 -8 34 12 22 30 21 53 -4 58 -12 2 -20 -4
-24 -17z"/>
<path d="M2761 2151 c-17 -11 -7 -41 13 -41 22 0 30 20 15 36 -9 8 -19 10 -28
5z"/>
<path d="M2959 2133 c-11 -13 -10 -17 5 -28 10 -8 15 -18 12 -23 -8 -13 20
-35 34 -27 15 9 12 35 -4 41 -8 3 -12 13 -9 23 6 24 -22 34 -38 14z"/>
<path d="M3240 2131 c-14 -27 -13 -40 5 -57 8 -8 12 -20 9 -28 -6 -16 21 -40
36 -31 5 3 10 14 10 23 0 10 9 23 20 30 21 13 28 52 9 52 -6 0 -20 -5 -31 -11
-15 -8 -19 -8 -13 0 7 12 -11 41 -26 41 -5 0 -13 -9 -19 -19z"/>
<path d="M1542 2109 c-7 -19 -9 -19 -21 -5 -13 15 -15 15 -32 0 -31 -28 -3
-98 28 -72 10 8 13 6 13 -5 0 -9 -4 -19 -10 -22 -24 -15 0 -100 32 -111 15 -4
15 -8 5 -25 -10 -17 -9 -22 5 -33 10 -7 16 -15 13 -17 -9 -9 22 -93 38 -103
26 -16 66 27 50 53 -6 10 -9 28 -6 39 6 23 -13 38 -30 23 -15 -12 -42 2 -33
17 3 6 1 14 -4 17 -8 5 -6 13 6 26 20 22 6 46 -29 51 l-22 3 23 20 c26 23 28
47 7 65 -16 13 -11 49 8 61 14 10 1 39 -18 39 -9 0 -19 -9 -23 -21z"/>
<path d="M1865 2110 c-3 -5 -3 -16 2 -22 4 -7 8 -33 8 -58 0 -53 20 -61 45
-17 14 27 14 29 -7 46 -15 13 -19 21 -11 29 6 6 7 15 4 21 -9 14 -33 14 -41 1z"/>
<path d="M2055 2089 c-10 -15 15 -69 32 -69 22 0 27 28 9 55 -18 27 -31 31
-41 14z"/>
<path d="M3184 2077 c-6 -16 12 -67 24 -67 21 0 29 22 19 51 -12 30 -34 39
-43 16z"/>
<path d="M2313 2064 c-8 -22 18 -37 36 -20 7 8 10 19 7 25 -10 16 -36 13 -43
-5z"/>
<path d="M2845 2070 c-9 -15 15 -42 32 -36 8 3 13 -2 13 -13 0 -21 29 -36 43
-22 16 16 4 56 -18 56 -11 0 -24 6 -28 13 -10 15 -33 16 -42 2z"/>
<path d="M1954 2035 c-7 -18 3 -35 21 -35 18 0 26 25 12 39 -15 15 -27 14 -33
-4z"/>
<path d="M2774 2025 c-4 -9 -2 -21 4 -27 15 -15 44 -1 40 19 -4 23 -36 29 -44
8z"/>
<path d="M2983 2024 c-8 -22 18 -37 36 -20 7 8 10 19 7 25 -10 16 -36 13 -43
-5z"/>
<path d="M1754 2005 c-7 -18 3 -35 21 -35 21 0 28 19 15 35 -16 19 -29 19 -36
0z"/>
<path d="M2664 2009 c-10 -17 23 -46 37 -32 7 7 9 19 6 27 -7 18 -33 21 -43 5z"/>
<path d="M3124 2005 c-7 -18 3 -35 21 -35 18 0 26 25 12 39 -15 15 -27 14 -33
-4z"/>
<path d="M1685 1989 c-7 -22 18 -59 40 -59 16 0 29 31 17 39 -5 3 -11 14 -15
24 -9 23 -34 22 -42 -4z"/>
<path d="M2432 1997 c-15 -17 1 -42 23 -33 18 6 17 37 -1 43 -6 2 -16 -2 -22
-10z"/>
<path d="M3194 1989 c-10 -16 17 -41 31 -29 9 8 14 5 18 -10 3 -12 13 -20 27
-20 18 0 21 5 18 33 -3 30 -5 32 -45 34 -24 0 -46 -3 -49 -8z"/>
<path d="M1814 1975 c-7 -18 3 -35 21 -35 21 0 28 19 15 35 -16 19 -29 19 -36
0z"/>
<path d="M2097 1983 c-15 -14 -6 -34 20 -44 22 -8 30 -6 46 10 11 10 16 24 13
30 -8 12 -68 15 -79 4z"/>
<path d="M2733 1974 c-4 -10 0 -22 11 -29 11 -9 13 -15 6 -20 -6 -3 -10 -12
-9 -18 1 -7 -1 -20 -6 -30 -9 -21 7 -43 24 -33 6 4 11 14 11 22 0 8 6 23 13
34 9 15 9 23 1 28 -6 4 -11 18 -10 32 1 29 -31 41 -41 14z"/>
<path d="M2033 1964 c-3 -8 -1 -20 6 -27 14 -14 47 15 37 32 -10 16 -36 13
-43 -5z"/>
<path d="M2517 1966 c-7 -17 18 -40 33 -31 5 3 10 15 10 26 0 23 -35 27 -43 5z"/>
<path d="M1613 1954 c-8 -21 13 -42 28 -27 13 13 5 43 -11 43 -6 0 -13 -7 -17
-16z"/>
<path d="M1905 1950 c-18 -20 -15 -50 6 -50 20 0 48 44 37 58 -14 17 -22 15
-43 -8z"/>
<path d="M2333 1959 c-16 -16 -5 -39 19 -39 14 0 19 6 16 22 -4 25 -19 33 -35
17z"/>
<path d="M2234 1946 c-3 -9 -14 -16 -24 -16 -31 0 -31 -28 1 -55 35 -28 40
-30 57 -13 18 18 15 28 -10 38 -19 7 -20 9 -5 9 13 1 17 7 15 23 -4 26 -26 35
-34 14z"/>
<path d="M3133 1934 c-9 -23 13 -40 32 -24 12 10 13 16 4 26 -15 18 -28 18
-36 -2z"/>
<path d="M3190 1921 c0 -12 5 -21 12 -21 6 0 8 -3 4 -7 -4 -4 -15 -8 -24 -8
-10 0 -17 -8 -17 -20 0 -17 6 -20 35 -17 19 1 42 9 50 17 13 13 13 18 -2 43
-21 34 -58 43 -58 13z"/>
<path d="M2079 1914 c-11 -14 -11 -18 2 -28 9 -6 14 -16 12 -22 -5 -15 20 -35
32 -26 6 4 16 18 23 31 12 20 12 26 0 36 -23 23 -54 27 -69 9z"/>
<path d="M3068 1898 c-27 -41 -28 -69 -6 -97 14 -18 30 -26 52 -26 28 0 31 -3
28 -28 -2 -18 3 -29 14 -34 17 -6 36 15 27 31 -3 5 -1 6 4 3 20 -12 34 18 23
48 -9 23 -14 26 -39 20 -24 -5 -29 -2 -34 16 -4 16 -11 20 -26 16 -19 -5 -19
-4 -4 19 17 26 12 54 -11 54 -7 0 -20 -10 -28 -22z"/>
<path d="M1689 1889 c-14 -26 2 -45 28 -34 10 5 21 8 25 7 11 -2 30 27 23 38
-12 19 -64 11 -76 -11z"/>
<path d="M2020 1895 c-10 -13 -10 -19 5 -35 10 -11 24 -20 32 -20 18 0 17 35
-3 54 -19 20 -19 20 -34 1z"/>
<path d="M1849 1888 c-1 -7 -1 -16 0 -20 0 -5 -6 -8 -14 -8 -8 0 -15 -9 -15
-20 0 -13 7 -20 20 -20 11 0 20 6 20 14 0 8 7 16 15 20 23 8 19 46 -5 46 -11
0 -21 -6 -21 -12z"/>
<path d="M2364 1885 c-7 -18 3 -35 21 -35 21 0 28 19 15 35 -16 19 -29 19 -36
0z"/>
<path d="M2567 1886 c-8 -20 20 -43 35 -28 14 14 3 42 -16 42 -7 0 -16 -6 -19
-14z"/>
<path d="M2904 1885 c-4 -9 -4 -19 -1 -22 4 -3 2 -14 -3 -23 -7 -13 -5 -22 6
-31 20 -17 32 -2 36 46 2 31 -1 40 -15 43 -9 2 -20 -4 -23 -13z"/>
<path d="M2644 1879 c-3 -6 0 -17 7 -25 18 -17 44 -2 36 20 -7 18 -33 21 -43
5z"/>
<path d="M2997 1876 c-8 -20 20 -43 35 -28 14 14 3 42 -16 42 -7 0 -16 -6 -19
-14z"/>
<path d="M2795 1855 c-27 -22 -28 -26 -14 -40 14 -14 18 -13 44 10 27 22 28
26 14 40 -14 14 -18 13 -44 -10z"/>
<path d="M2479 1831 c-6 -16 -17 -32 -25 -35 -18 -7 -18 -30 0 -45 11 -10 17
-8 29 9 13 19 18 20 36 8 27 -17 51 3 32 26 -7 9 -16 15 -19 14 -19 -2 -25 3
-13 11 17 11 7 41 -14 41 -9 0 -21 -13 -26 -29z"/>
<path d="M2953 1844 c-9 -23 13 -40 32 -24 12 10 13 16 4 26 -15 18 -28 18
-36 -2z"/>
<path d="M2300 1835 c-10 -11 -10 -19 -2 -27 15 -15 44 -2 40 19 -4 23 -22 27
-38 8z"/>
<path d="M1732 1817 c-15 -17 1 -42 23 -33 18 6 17 37 -1 43 -6 2 -16 -2 -22
-10z"/>
<path d="M2203 1814 c-3 -8 -1 -20 6 -27 14 -14 47 15 37 32 -10 16 -36 13
-43 -5z"/>
<path d="M2600 1815 c-10 -11 -10 -19 -2 -27 15 -15 44 -2 40 19 -4 23 -22 27
-38 8z"/>
<path d="M2714 1819 c-3 -6 0 -17 8 -25 13 -13 16 -13 27 0 7 8 10 20 6 26 -8
13 -32 13 -41 -1z"/>
<path d="M1672 1798 c2 -13 10 -23 18 -23 8 0 16 10 18 23 3 17 -2 22 -18 22
-16 0 -21 -5 -18 -22z"/>
<path d="M2096 1793 c-9 -22 4 -33 40 -36 38 -3 44 25 9 41 -34 16 -42 15 -49
-5z"/>
<path d="M1864 1776 c-10 -26 1 -51 21 -51 23 0 32 30 15 50 -16 19 -29 19
-36 1z"/>
<path d="M2034 1755 c-17 -26 -12 -45 11 -45 18 0 38 37 31 56 -8 21 -24 17
-42 -11z"/>
<path d="M2774 1765 c-7 -18 3 -35 22 -35 20 0 30 30 13 41 -20 12 -29 11 -35
-6z"/>
<path d="M2884 1755 c-4 -10 -1 -21 7 -26 20 -12 34 -5 34 17 0 24 -33 31 -41
9z"/>
<path d="M2246 1731 c-17 -19 -16 -51 1 -51 18 1 44 30 41 46 -5 25 -22 27
-42 5z"/>
<path d="M2574 1739 c-3 -6 0 -17 7 -25 18 -17 44 -2 36 20 -7 18 -33 21 -43
5z"/>
<path d="M2975 1740 c-10 -16 10 -35 40 -38 24 -2 45 21 32 34 -11 11 -66 14
-72 4z"/>
<path d="M1960 1720 c0 -13 7 -20 20 -20 13 0 20 7 20 20 0 13 -7 20 -20 20
-13 0 -20 -7 -20 -20z"/>
<path d="M1907 1724 c-16 -16 -7 -44 14 -44 15 0 20 5 17 22 -3 22 -19 33 -31
22z"/>
<path d="M1760 1705 c-15 -18 -5 -35 21 -35 12 0 19 7 19 19 0 24 -25 34 -40
16z"/>
<path d="M3074 1705 c-8 -19 -2 -27 40 -49 28 -15 39 -17 48 -8 9 9 5 19 -21
42 -35 33 -59 38 -67 15z"/>
<path d="M2383 1694 c-4 -10 0 -22 10 -29 12 -8 13 -15 6 -22 -15 -15 -3 -33
22 -33 12 0 19 7 19 20 0 11 -5 20 -11 20 -6 0 -8 9 -4 21 11 33 -30 54 -42
23z"/>
<path d="M2523 1684 c-3 -8 -1 -20 6 -27 14 -14 47 15 37 32 -10 16 -36 13
-43 -5z"/>
<path d="M1640 1675 c-14 -17 -5 -35 17 -35 13 0 13 -3 3 -15 -10 -12 -10 -18
0 -30 10 -12 15 -12 38 3 14 9 38 17 51 17 16 0 27 6 29 17 4 22 -39 41 -74
32 -13 -3 -24 -2 -24 4 0 17 -28 22 -40 7z"/>
<path d="M2054 1655 c-19 -41 -7 -69 20 -46 9 7 15 16 14 19 -2 19 4 23 17 12
18 -15 45 -6 45 14 0 18 -6 22 -47 30 -29 7 -33 4 -49 -29z"/>
<path d="M2688 1649 c-6 -64 33 -81 45 -19 8 38 0 60 -23 60 -14 0 -19 -10
-22 -41z"/>
<path d="M2957 1636 c-7 -17 18 -40 33 -31 5 3 10 15 10 26 0 23 -35 27 -43 5z"/>
<path d="M3095 1620 c-4 -6 -1 -17 5 -25 10 -12 9 -15 -4 -15 -9 0 -16 -6 -16
-14 0 -8 -7 -16 -15 -20 -18 -6 -20 -32 -4 -42 14 -8 59 39 59 64 0 10 5 23
11 29 6 6 8 16 5 22 -9 14 -33 14 -41 1z"/>
<path d="M1847 1613 c-2 -5 -7 -20 -11 -35 -5 -21 -1 -30 16 -42 30 -21 48
-20 48 2 0 10 6 24 13 31 10 10 7 16 -13 31 -26 21 -46 25 -53 13z"/>
<path d="M2287 1606 c-8 -20 20 -43 35 -28 14 14 3 42 -16 42 -7 0 -16 -6 -19
-14z"/>
<path d="M3034 1609 c-3 -6 0 -17 7 -25 18 -17 44 -2 36 20 -7 18 -33 21 -43
5z"/>
<path d="M2225 1599 c-8 -11 22 -79 34 -79 5 0 15 7 22 16 11 14 10 18 -6 30
-10 8 -15 14 -11 14 5 0 3 7 -4 15 -15 18 -26 19 -35 4z"/>
<path d="M2897 1584 c-15 -15 -7 -45 11 -42 9 2 17 12 17 22 0 20 -16 31 -28
20z"/>
<path d="M2123 1563 c-24 -16 -30 -38 -13 -48 5 -3 20 1 32 9 19 14 23 14 34
-2 12 -16 14 -16 29 -1 16 15 15 18 -13 38 -35 25 -40 25 -69 4z"/>
<path d="M2544 1569 c-3 -6 0 -17 8 -25 13 -13 16 -13 27 0 7 8 10 20 6 26 -8
13 -32 13 -41 -1z"/>
<path d="M2733 1554 c-3 -8 -1 -20 6 -27 14 -14 47 15 37 32 -10 16 -36 13
-43 -5z"/>
<path d="M2023 1544 c-8 -22 18 -37 36 -20 7 8 10 19 7 25 -10 16 -36 13 -43
-5z"/>
<path d="M2345 1540 c-4 -7 -3 -16 3 -22 14 -14 45 -2 40 15 -6 16 -34 21 -43
7z"/>
<path d="M2434 1529 c-10 -17 23 -46 37 -32 7 7 9 19 6 27 -7 18 -33 21 -43 5z"/>
<path d="M1923 1504 c-3 -8 -1 -20 6 -27 14 -14 47 15 37 32 -10 16 -36 13
-43 -5z"/>
<path d="M2766 1501 c-4 -6 -2 -18 3 -28 5 -10 12 -26 15 -35 3 -10 12 -18 21
-18 19 0 32 29 18 39 -6 3 -12 15 -14 26 -5 22 -33 32 -43 16z"/>
<path d="M2943 1494 c-3 -8 -1 -20 6 -27 14 -14 47 15 37 32 -10 16 -36 13
-43 -5z"/>
<path d="M2100 1475 c-10 -11 -10 -19 -2 -27 15 -15 44 -2 40 19 -4 23 -22 27
-38 8z"/>
<path d="M2204 1469 c-10 -17 23 -46 37 -32 7 7 9 19 6 27 -7 18 -33 21 -43 5z"/>
<path d="M2461 1466 c-9 -10 -8 -16 4 -26 19 -16 41 1 32 24 -8 20 -21 20 -36
2z"/>
<path d="M1747 1464 c-16 -16 -7 -44 14 -44 15 0 20 5 17 22 -3 22 -19 33 -31
22z"/>
<path d="M2421 1436 c-9 -10 -8 -16 4 -26 19 -16 41 1 32 24 -8 20 -21 20 -36
2z"/>
<path d="M2621 1436 c-14 -17 -7 -36 14 -36 22 0 29 20 13 36 -13 13 -16 13
-27 0z"/>
<path d="M1842 1412 c-3 -8 1 -20 9 -26 8 -6 14 -20 14 -31 0 -25 33 -32 42
-9 4 11 -1 22 -13 31 -18 13 -17 14 11 11 24 -2 30 1 30 17 0 17 -7 20 -44 21
-29 0 -45 -4 -49 -14z"/>
<path d="M2853 1414 c-9 -23 6 -33 45 -30 29 1 37 6 37 21 0 16 -7 20 -38 21
-24 1 -41 -4 -44 -12z"/>
<path d="M2696 1378 c-12 -39 5 -81 29 -72 21 8 14 78 -8 82 -9 2 -19 -2 -21
-10z"/>
<path d="M1807 1368 c-7 -20 11 -58 27 -58 22 0 27 15 16 44 -10 27 -34 35
-43 14z"/>
<path d="M2194 1369 c-10 -17 23 -46 37 -32 7 7 9 19 6 27 -7 18 -33 21 -43 5z"/>
<path d="M2975 1370 c-9 -15 14 -40 31 -33 22 8 18 43 -5 43 -11 0 -23 -5 -26
-10z"/>
<path d="M2501 1356 c-9 -10 -8 -16 4 -26 19 -16 41 1 32 24 -8 20 -21 20 -36
2z"/>
<path d="M2154 1299 c-10 -17 23 -46 37 -32 7 7 9 19 6 27 -7 18 -33 21 -43 5z"/>
<path d="M2895 1300 c-4 -7 -3 -16 3 -22 14 -14 45 -2 40 15 -6 16 -34 21 -43
7z"/>
<path d="M2740 1280 c0 -16 5 -21 23 -18 12 2 22 10 22 18 0 8 -10 16 -22 18
-18 3 -23 -2 -23 -18z"/>
<path d="M1884 1275 c-7 -18 3 -35 21 -35 21 0 28 19 15 35 -16 19 -29 19 -36
0z"/>
</g>
</svg>
